<?xml version="1.0" encoding="UTF-8"?> <svg xmlns="http://www.w3.org/2000/svg" width="518" height="127" viewBox="0 0 518 127" fill="none"><g filter="url(#filter0_d_1029_3)"><g filter="url(#filter1_d_1029_3)"><path d="M494.781 6.16931C503.364 6.16931 510.724 12.4022 511.708 20.9294C513.219 34.0393 514 47.4198 514 61.0131C514 75.4749 513.116 89.6957 511.408 103.606C510.368 112.079 503.034 118.245 494.497 118.245H23.5031C14.9663 118.245 7.63191 112.079 6.59171 103.606C4.88402 89.6957 4.00001 75.4749 4 61.0131C4 47.4198 4.78067 34.0393 6.29237 20.9294C7.27565 12.4022 14.6356 6.16931 23.2193 6.16931H494.781Z" fill="#D4AF37"></path></g><path d="M494.755 0C503.335 0 510.692 6.22679 511.681 14.7491C513.21 27.9315 514 41.3879 514 55.0596C514 69.4427 513.126 83.5877 511.436 97.4259C510.401 105.904 503.064 112.076 494.523 112.076H23.4766C14.9356 112.076 7.59886 105.904 6.5638 97.4259C4.87435 83.5877 4 69.4427 4 55.0596C4.00001 41.3879 4.79002 27.9315 6.31912 14.7491C7.30767 6.22678 14.6653 0 23.2448 0H494.755Z" fill="url(#paint0_linear_1029_3)"></path><path d="M31.5645 10.25H486.436C494.626 10.2501 501.584 15.3039 502.516 22.1406C503.989 32.9503 504.75 43.9851 504.75 55.1963C504.75 66.9911 503.908 78.5908 502.28 89.9385C501.305 96.7402 494.365 101.75 486.212 101.75H31.7881C23.6346 101.75 16.6955 96.7402 15.7197 89.9385C14.0918 78.5908 13.25 66.9911 13.25 55.1963C13.25 43.9851 14.011 32.9503 15.4844 22.1406C16.4164 15.3039 23.3742 10.2501 31.5645 10.25Z" stroke="black" stroke-width="0.5"></path><path d="M137.261 62.6615H143.118C143.158 65.0004 144.677 66.5396 146.956 66.5396C149.475 66.5396 150.834 64.9804 150.834 62.0817V42.3111H156.872V62.1217C156.872 68.2588 153.193 71.7572 147.016 71.7572C141.119 71.7572 137.261 68.1789 137.261 62.6615ZM174.923 41.8113C183.459 41.8113 188.837 47.5486 188.837 56.7443C188.837 65.9199 183.459 71.6572 174.923 71.6572C166.367 71.6572 161.01 65.9199 161.01 56.7443C161.01 47.5486 166.367 41.8113 174.923 41.8113ZM174.923 46.8489C170.205 46.8489 167.167 50.6871 167.167 56.7443C167.167 62.7814 170.185 66.5996 174.923 66.5996C179.641 66.5996 182.659 62.7814 182.659 56.7443C182.659 50.6871 179.641 46.8489 174.923 46.8489ZM205.249 71.1575H199.212V60.3825L189.176 42.3111H195.753L202.21 54.6253H202.35L208.827 42.3111H215.304L205.249 60.3825V71.1575ZM239.133 71.1575H226.359V42.3111H238.913C244.33 42.3111 247.729 45.0897 247.729 49.5077C247.729 52.6662 245.37 55.3049 242.311 55.7647V55.9246C246.23 56.2245 249.108 59.0832 249.108 62.9014C249.108 67.979 245.29 71.1575 239.133 71.1575ZM232.396 46.8089V54.3054H236.734C239.952 54.3054 241.792 52.8861 241.792 50.4472C241.792 48.1283 240.172 46.8089 237.354 46.8089H232.396ZM232.396 66.6596H237.594C241.072 66.6596 242.951 65.1803 242.951 62.4216C242.951 59.7229 241.012 58.2835 237.454 58.2835H232.396V66.6596ZM271.438 71.1575L269.239 64.1608H259.103L256.904 71.1575H250.707L260.723 42.3111H267.819L277.855 71.1575H271.438ZM264.101 47.8285L260.403 59.6429H267.939L264.241 47.8285H264.101ZM286.591 71.1575H280.813V42.3111H285.851L299.325 61.1022H299.484V42.3111H305.262V71.1575H300.264L286.77 52.2664H286.591V71.1575ZM310.079 42.3111H321.094C329.75 42.3111 334.848 47.4686 334.848 56.6243C334.848 65.78 329.75 71.1575 321.094 71.1575H310.079V42.3111ZM316.117 47.2887V66.1598H320.375C325.772 66.1598 328.691 62.8814 328.691 56.6443C328.691 50.6071 325.692 47.2887 320.375 47.2887H316.117ZM359.876 71.6572C351.32 71.6572 345.963 65.9999 345.963 56.7443C345.963 47.5686 351.32 41.8113 359.876 41.8113C368.412 41.8113 373.769 47.5686 373.769 56.7443C373.769 61.8219 372.15 65.8999 369.172 68.3588L372.83 73.8762H366.973L364.914 70.8576C363.374 71.3974 361.695 71.6572 359.876 71.6572ZM359.876 66.6596C360.616 66.6596 361.295 66.5596 361.935 66.3797L358.777 61.6619H364.234L365.493 63.3811C366.853 61.8219 367.612 59.5229 367.612 56.7443C367.612 50.6871 364.594 46.7889 359.876 46.7889C355.138 46.7889 352.12 50.6871 352.12 56.7443C352.12 62.7814 355.138 66.6596 359.876 66.6596ZM383.725 71.1575H377.688V42.3111H383.725V71.1575ZM407.174 66.1598V71.1575H388.522V42.3111H394.56V66.1598H407.174ZM416.789 71.1575H410.752V42.3111H416.789V71.1575ZM420.507 62.9413H426.325C426.605 65.3202 429.083 66.8795 432.282 66.8795C435.5 66.8795 437.699 65.3402 437.699 63.2212C437.699 61.3421 436.32 60.3026 432.842 59.5229L429.083 58.7033C423.766 57.5639 421.147 54.8651 421.147 50.6471C421.147 45.3296 425.745 41.8113 432.182 41.8113C438.899 41.8113 443.117 45.2697 443.217 50.4872H437.559C437.359 48.0484 435.22 46.5691 432.202 46.5691C429.223 46.5691 427.224 47.9884 427.224 50.1274C427.224 51.9065 428.624 52.9061 431.942 53.6657L435.44 54.4054C441.218 55.6448 443.736 58.1236 443.736 62.5215C443.736 68.1189 439.199 71.6572 432.042 71.6572C425.105 71.6572 420.687 68.3588 420.507 62.9413ZM472.523 71.1575H466.486V59.0032H453.492V71.1575H447.455V42.3111H453.492V54.0255H466.486V42.3111H472.523V71.1575Z" fill="black"></path><path d="M79.9448 58.2193C81.0853 58.2193 82.0098 59.1438 82.0098 60.2842V60.3145C82.0098 66.1175 80.6389 71.7231 78.0554 76.7527V76.7527C77.7988 77.2358 77.1943 77.4122 76.7181 77.1429L75.7483 76.5943C74.7681 76.0397 74.4226 74.8027 74.9002 73.7828C76.7186 69.8994 77.7367 65.6596 77.8658 61.2697L77.8799 60.3145V60.2842C77.8799 59.1438 78.8044 58.2193 79.9448 58.2193V58.2193ZM69.6201 53.9985C69.6201 52.8581 70.5446 51.9336 71.685 51.9336V51.9336C72.8255 51.9336 73.75 52.8581 73.75 53.9985V60.3145L73.7386 61.108C73.5745 66.9135 71.6111 72.4105 68.1818 76.9256V76.9256C67.9208 77.2594 67.4358 77.3117 67.1096 77.0413L66.0718 76.1812C65.2039 75.4618 65.0833 74.1834 65.7106 73.2467C68.0993 69.6797 69.4653 65.4905 69.6077 61.082L69.6201 60.3145V53.9985ZM71.685 43.5526C76.6948 43.5526 80.8713 47.1731 81.8117 51.9762C82.0308 53.0954 81.0853 54.0288 79.9448 54.0288V54.0288C78.8044 54.0288 77.9131 53.0802 77.5498 51.9991C76.7179 49.5236 74.4063 47.7431 71.685 47.7431C68.2636 47.7431 65.4901 50.5573 65.4901 54.0288V60.3145C65.4901 64.9982 63.7975 69.4171 60.8006 72.8373V72.8373C60.5616 73.1009 60.1519 73.1143 59.896 72.8671L58.834 71.8406C58.0239 71.0576 58.0066 69.7765 58.6575 68.8569C60.2791 66.5658 61.2256 63.8358 61.3469 60.9487L61.3602 60.3145V54.0288C61.3602 48.243 65.9827 43.5526 71.685 43.5526ZM71.685 35.1716C81.9489 35.1716 90.2696 43.6143 90.2696 54.0288V60.3145C90.2696 63.872 89.8529 67.3753 89.0372 70.7704V70.7704C88.8799 71.3894 88.2447 71.7583 87.6291 71.5883L86.7302 71.34C85.6429 71.0397 85.0069 69.9193 85.2433 68.8163C85.7551 66.4283 86.0506 63.9842 86.1223 61.5055L86.1397 60.3145V54.0288C86.1397 45.9286 79.6679 39.3621 71.685 39.3621C69.1022 39.3621 66.6777 40.0494 64.5793 41.2536C63.6557 41.7837 62.4687 41.7139 61.7214 40.9552V40.9552C60.8446 40.0649 60.9218 38.6024 61.9827 37.9422C64.8068 36.1848 68.1293 35.1716 71.685 35.1716ZM55.8061 44.2254C56.4598 43.1375 57.951 43.0579 58.8422 43.9616V43.9616C59.5712 44.7007 59.6387 45.8531 59.1289 46.7574C57.9978 48.7639 57.3205 51.0676 57.2387 53.5245L57.229 54.0267L57.2376 58.2193C57.2376 60.5649 56.6927 62.8343 55.6658 64.8763V64.8763C55.4897 65.2072 55.074 65.326 54.7496 65.138L53.5067 64.418C52.5367 63.8561 52.2208 62.6218 52.5731 61.5576C52.8621 60.6843 53.0372 59.7698 53.0903 58.8319L53.1077 58.2193L53.1073 54.0288C53.1017 50.4382 54.0896 47.082 55.8061 44.2254Z" fill="black"></path><circle cx="71.0131" cy="56.4031" r="32.5877" stroke="#D4AF37" stroke-width="0.987506"></circle></g><defs><filter id="filter0_d_1029_3" x="0" y="0" width="518" height="126.245" filterUnits="userSpaceOnUse" color-interpolation-filters="sRGB"><feFlood flood-opacity="0" result="BackgroundImageFix"></feFlood><feColorMatrix in="SourceAlpha" type="matrix" values="0 0 0 0 0 0 0 0 0 0 0 0 0 0 0 0 0 0 127 0" result="hardAlpha"></feColorMatrix><feOffset dy="4"></feOffset><feGaussianBlur stdDeviation="2"></feGaussianBlur><feComposite in2="hardAlpha" operator="out"></feComposite><feColorMatrix type="matrix" values="0 0 0 0 0 0 0 0 0 0 0 0 0 0 0 0 0 0 0.25 0"></feColorMatrix><feBlend mode="normal" in2="BackgroundImageFix" result="effect1_dropShadow_1029_3"></feBlend><feBlend mode="normal" in="SourceGraphic" in2="effect1_dropShadow_1029_3" result="shape"></feBlend></filter><filter id="filter1_d_1029_3" x="0.4914" y="6.16931" width="517.017" height="120.597" filterUnits="userSpaceOnUse" color-interpolation-filters="sRGB"><feFlood flood-opacity="0" result="BackgroundImageFix"></feFlood><feColorMatrix in="SourceAlpha" type="matrix" values="0 0 0 0 0 0 0 0 0 0 0 0 0 0 0 0 0 0 127 0" result="hardAlpha"></feColorMatrix><feOffset dy="5.01229"></feOffset><feGaussianBlur stdDeviation="1.7543"></feGaussianBlur><feComposite in2="hardAlpha" operator="out"></feComposite><feColorMatrix type="matrix" values="0 0 0 0 0.633376 0 0 0 0 0.453919 0 0 0 0 0 0 0 0 0.5 0"></feColorMatrix><feBlend mode="normal" in2="BackgroundImageFix" result="effect1_dropShadow_1029_3"></feBlend><feBlend mode="normal" in="SourceGraphic" in2="effect1_dropShadow_1029_3" result="shape"></feBlend></filter><linearGradient id="paint0_linear_1029_3" x1="505.219" y1="1.6299e-05" x2="159.482" y2="285.586" gradientUnits="userSpaceOnUse"><stop offset="0.522349" stop-color="#FFDC6B"></stop><stop offset="1" stop-color="#D4AF37"></stop><stop offset="1" stop-color="#D4AF37"></stop></linearGradient></defs></svg> 